<svg xmlns="http://www.w3.org/2000/svg" viewBox="0 0 1920 1080">
  <defs>
    <style>
      .cls-1 {
        fill: #12120d;
      }

      .cls-2 {
        fill: none;
        stroke: #12120d;
        stroke-miterlimit: 10;
      }
    </style>
  </defs>
  <g id="Calque_2" data-name="Calque 2">
    <g id="Calque_1-2" data-name="Calque 1">
      <g>
        <g>
          <polygon class="cls-1" points="1387.21 593.41 1794.78 1080 1578.37 1080 1344.61 608.35 1387.18 593.32 1387.21 593.41"/>
          <polygon class="cls-1" points="912.58 487.02 1087.63 699.03 912.54 760.87 817.49 794.44 722.43 828.02 627.41 861.58 532.32 895.16 9 1080 8.99 1080 0 1080 0 1016.2 935.43 677.23 879.46 588.96 0 964.85 0 914.77 912.58 487.02"/>
          <polygon class="cls-1" points="1512.15 549.3 1920 676.8 1920 848.95 1439.57 574.93 1439.54 574.85 1512.13 549.23 1512.15 549.3"/>
          <polygon class="cls-1" points="1302.5 623.32 1341.57 762.87 960 883.51 940.75 833.77 1236.42 738.46 1206.86 656.96 1302.46 623.22 1302.5 623.32"/>
          <polygon class="cls-1" points="532.34 895.23 603.84 1080 9 1080 532.32 895.16 532.34 895.23"/>
          <polygon class="cls-1" points="722.46 828.11 819.94 1080 711.89 1080 627.84 862.8 627.41 861.58 722.43 828.02 722.46 828.11"/>
          <polygon class="cls-1" points="912.58 760.98 940.75 833.77 960 883.51 999.36 985.21 1036.04 1080 927.99 1080 817.52 794.54 817.49 794.44 912.54 760.87 912.58 760.98"/>
          <polygon class="cls-1" points="0 294.77 97.21 501.38 37.47 527.54 0 447.91 0 294.77"/>
          <polygon class="cls-1" points="5.42 0 216.7 449.05 156.96 475.21 0 141.61 0 0 5.42 0"/>
          <polygon class="cls-1" points="149.96 0 336.18 396.73 276.44 422.89 77.46 0 149.96 0"/>
          <polygon class="cls-1" points="511 0 526 102 456 134 416.12 0 511 0"/>
          <polygon class="cls-1" points="662 0 662 194 366 306 236.4 0 324.47 0 410 238 594 166 594 0 662 0"/>
          <polygon class="cls-1" points="156.96 475.21 216.7 449.05 276.44 422.89 336.18 396.73 721.46 238 739.43 0 809.56 0 774.27 288.14 0 619.33 0 543.94 37.47 527.54 97.21 501.38 156.96 475.21"/>
          <polygon class="cls-1" points="1029.84 0 1030.69 296.77 1030.69 296.78 960 329.84 991.07 0 1029.84 0"/>
          <polygon class="cls-1" points="942.63 0 879.46 367.51 0 778.85 0 702.11 813.72 335.1 873.4 0 942.63 0"/>
          <polygon class="cls-1" points="1388.8 931.52 1409.42 1005.16 1409.41 1005.16 1390.22 1080 1259.91 1080 1388.8 931.52"/>
          <polygon class="cls-1" points="1355.83 813.78 1369.55 862.8 1074.54 1080 1036.04 1080 999.36 985.21 1355.83 813.78"/>
          <polygon class="cls-1" points="1920 151.04 1920 345.86 1188.15 570.96 978.49 394.19 0 857.66 0 820.52 1018.35 338.39 1241.21 474.55 1920 151.04"/>
          <polygon class="cls-1" points="1207.67 0 1188.38 78.83 1087.65 50.01 1087.66 0 1207.67 0"/>
          <polygon class="cls-1" points="1467.75 0 1267.74 203.27 1087.62 139.48 1087.64 92.73 1246.52 134 1351.88 0 1467.75 0"/>
          <polygon class="cls-1" points="1854.81 0 1329 348.52 1087.59 270.16 1087.61 196.87 1284.45 255.62 1580.93 0 1854.81 0"/>
        </g>
        <g>
          <polyline class="cls-2" points="1206.86 656.96 1236.42 738.46 940.75 833.77"/>
          <polyline class="cls-2" points="960 883.51 1341.57 762.87 1344.61 761.91"/>
          <line class="cls-2" x1="1355.83" y1="813.78" x2="999.36" y2="985.21"/>
        </g>
      </g>
    </g>
  </g>
</svg>
