<svg xmlns="http://www.w3.org/2000/svg" viewBox="0 0 996.94 631.54">
  <defs>
    <style>
      .cls-1 {
        fill: #fff;
      }

      .cls-2 {
        fill: #12120d;
      }
    </style>
  </defs>
  <g id="Calque_2" data-name="Calque 2">
    <g id="Calque_1-2" data-name="Calque 1">
      <g>
        <polygon class="cls-1" points="996.94 0 709.84 260.65 685.23 232.46 685.37 232.34 945.4 0 996.94 0"/>
        <polygon class="cls-2" points="945.4 0 685.37 232.34 685.23 232.46 660.71 204.37 889.44 0 945.4 0"/>
        <polygon class="cls-1" points="889.44 0 660.71 204.37 636.19 176.28 833.48 0 889.44 0"/>
        <polygon class="cls-2" points="833.48 0 636.19 176.28 611.67 148.19 777.51 0 833.48 0"/>
        <polygon class="cls-1" points="777.51 0 611.67 148.19 587.15 120.1 721.56 0 777.51 0"/>
        <polygon class="cls-2" points="721.56 0 587.15 120.1 562.63 92.01 665.6 0 721.56 0"/>
        <polygon class="cls-1" points="709.84 260.65 681.07 286.77 325.9 0 482.3 0 538.1 63.92 562.63 92.01 587.15 120.1 611.67 148.19 636.19 176.28 660.71 204.37 685.23 232.46 709.84 260.65"/>
        <polygon class="cls-2" points="681.07 286.77 654.1 311.26 396.97 146.39 380.06 167.06 252.63 0 325.9 0 681.07 286.77"/>
        <polygon class="cls-1" points="665.6 0 562.63 92.01 538.1 63.92 609.64 0 665.6 0"/>
        <polygon class="cls-2" points="609.64 0 538.1 63.92 482.3 0 609.64 0"/>
        <polygon class="cls-1" points="252.63 0 380.06 167.06 351.02 202.54 130.83 0 252.63 0"/>
        <polygon class="cls-2" points="351.02 202.54 319.02 241.65 0 109.39 0 0 130.83 0 351.02 202.54"/>
        <polygon class="cls-1" points="319.02 241.65 302.97 261.27 0 232.04 0 109.39 319.02 241.65"/>
        <polygon class="cls-2" points="302.97 261.27 268.02 303.99 0 342.8 0 232.04 302.97 261.27"/>
        <polygon class="cls-1" points="268.02 303.99 217.36 365.9 0 441.44 0 342.8 268.02 303.99"/>
        <polygon class="cls-2" points="217.36 365.9 0 631.54 0 441.44 217.36 365.9"/>
      </g>
    </g>
  </g>
</svg>
