<svg xmlns="http://www.w3.org/2000/svg" viewBox="0 0 276.03 503.26">
  <defs>
    <style>
      .cls-1 {
        fill: #fff;
      }

      .cls-2 {
        fill: #12120d;
      }
    </style>
  </defs>
  <g id="Calque_2" data-name="Calque 2">
    <g id="Calque_1-2" data-name="Calque 1">
      <g>
        <polygon class="cls-1" points="140.8 347.42 276.03 438.64 276.03 503.26 127.82 402.81 140.8 347.42"/>
        <polygon class="cls-1" points="276.03 230.5 208.47 186.55 276.03 182.12 276.03 230.5"/>
        <polygon class="cls-1" points="145.45 158.09 276.03 125.33 276.03 182.12 208.47 186.55 178.02 188.55 168.24 230.27 154.52 288.84 140.8 347.42 127.82 402.81 85.98 374.44 145.45 158.09"/>
        <polygon class="cls-1" points="276.03 58.39 111.41 134.08 43.4 345.59 0 316.17 85.16 111.94 276.03 0 276.03 58.39"/>
        <polygon class="cls-2" points="111.41 134.08 276.03 58.39 276.03 125.33 145.45 158.09 85.98 374.44 43.4 345.59 111.41 134.08"/>
        <polygon class="cls-2" points="276.03 438.64 140.8 347.42 154.52 288.84 276.03 370.8 276.03 438.64"/>
        <polygon class="cls-1" points="276.03 370.8 154.52 288.84 168.24 230.27 276.03 302.98 276.03 370.8"/>
        <polygon class="cls-2" points="276.03 302.98 168.24 230.27 178.02 188.55 208.47 186.55 276.03 230.5 276.03 302.98"/>
      </g>
    </g>
  </g>
</svg>
