<svg xmlns="http://www.w3.org/2000/svg" viewBox="0 0 435.65 436.8">
  <defs>
    <style>
      .cls-1 {
        fill: #fff;
      }
    </style>
  </defs>
  <g id="Calque_2" data-name="Calque 2">
    <g id="Calque_1-2" data-name="Calque 1">
      <g>
        <polygon points="435.65 127.07 325.29 436.8 260.66 436.8 354.46 159.96 1.73 55.53 1.98 0 435.65 127.07"/>
        <polygon class="cls-1" points="354.46 159.96 260.66 436.8 189.52 436.8 266.7 199.41 1.41 125.81 1.73 55.53 354.46 159.96"/>
        <polygon points="266.7 199.41 189.52 436.8 122.42 436.8 186.18 238.61 1.14 185.11 1.41 125.81 266.7 199.41"/>
        <polygon class="cls-1" points="186.18 238.61 122.42 436.8 52.6 436.8 109.39 271.23 0.89 241.43 1.14 185.11 186.18 238.61"/>
        <polygon points="109.39 271.23 52.6 436.8 0 436.8 0.11 413.2 32.53 305.82 0.62 299.55 0.89 241.43 109.39 271.23"/>
        <polygon class="cls-1" points="32.53 305.82 0.11 413.2 0.62 299.55 32.53 305.82"/>
      </g>
    </g>
  </g>
</svg>
