<svg xmlns="http://www.w3.org/2000/svg" viewBox="0 0 415.11 777.36">
  <defs>
    <style>
      .cls-1 {
        fill: #fff;
      }
    </style>
  </defs>
  <g id="Calque_2" data-name="Calque 2">
    <g id="Calque_1-2" data-name="Calque 1">
      <g>
        <polygon points="415.11 718.92 415.11 777.36 391.05 777.36 415.11 718.92"/>
        <polygon class="cls-1" points="415.11 594.22 415.11 718.92 391.05 777.36 334.63 777.36 371.34 759.22 415.11 594.22"/>
        <polygon points="415.11 469.17 415.11 594.22 371.34 759.22 334.63 777.36 281.85 777.36 334.61 729.6 415.11 469.17"/>
        <polygon class="cls-1" points="415.11 214.41 415.11 469.17 334.61 729.6 281.85 777.36 153.78 777.36 312.55 684.75 415.11 214.41"/>
        <polygon points="415.11 0 415.11 214.41 312.55 684.75 153.78 777.36 0 777.36 276.82 617.65 415.11 0"/>
      </g>
    </g>
  </g>
</svg>
