<svg xmlns="http://www.w3.org/2000/svg" viewBox="0 0 382.09 979.64">
  <defs>
    <style>
      .cls-1 {
        fill: #fff;
      }
    </style>
  </defs>
  <g id="Calque_2" data-name="Calque 2">
    <g id="Calque_1-2" data-name="Calque 1">
      <g>
        <g>
          <polygon points="382.09 880.57 382.09 979.64 347.69 979.64 382.09 880.57"/>
          <polygon class="cls-1" points="382.09 741.09 382.09 880.57 347.69 979.64 297.96 979.64 382.09 741.09"/>
          <polygon points="382.09 593.99 382.09 741.09 297.96 979.64 240.43 979.64 382.09 593.99"/>
          <polygon class="cls-1" points="382.09 437.72 382.09 593.99 240.43 979.64 181.97 979.64 357.49 523.68 325.11 478.7 382.09 437.72"/>
          <polygon points="382.09 162.88 382.09 437.72 325.11 478.7 357.49 523.68 181.97 979.64 124.62 979.64 305.16 532.65 255.17 484.18 357.49 398.98 315.92 51.28 369.11 51.28 382.09 162.88"/>
          <polygon class="cls-1" points="382.09 51.28 382.09 162.88 369.11 51.28 382.09 51.28"/>
          <polygon class="cls-1" points="315.92 51.28 357.49 398.98 255.17 484.18 305.16 532.65 124.62 979.64 60.22 979.64 244.53 552.31 170.93 486.56 305.16 382.47 261.33 51.28 315.92 51.28"/>
          <polygon points="261.33 51.28 305.16 382.47 170.93 486.56 244.53 552.31 60.22 979.64 0 979.64 185.07 578.86 92.53 490.47 254.12 368.93 212.69 51.28 261.33 51.28"/>
        </g>
        <polygon points="382.09 51.28 212.69 51.28 204.28 0.06 382.09 0 382.09 51.28"/>
      </g>
    </g>
  </g>
</svg>
