<svg xmlns="http://www.w3.org/2000/svg" viewBox="0 0 1073.85 1080">
  <defs>
    <style>
      .cls-1 {
        fill: #fff;
      }
    </style>
  </defs>
  <g id="Calque_2" data-name="Calque 2">
    <g id="Calque_1-2" data-name="Calque 1">
      <g>
        <polygon class="cls-1" points="10.73 914.29 0 942.66 0 908.44 10.73 914.29"/>
        <polygon points="1073.85 0 1060.04 54.96 771.69 54.96 794.98 0 1073.85 0"/>
        <polygon class="cls-1" points="794.98 0 771.69 54.96 711.69 54.96 734.98 0 794.98 0"/>
        <polygon points="734.98 0 711.69 54.96 651.69 54.96 674.98 0 734.98 0"/>
        <polygon class="cls-1" points="674.98 0 651.69 54.96 591.69 54.96 614.98 0 674.98 0"/>
        <polygon points="614.98 0 591.69 54.96 531.69 54.96 554.98 0 614.98 0"/>
        <polygon class="cls-1" points="554.98 0 531.69 54.96 471.69 54.96 494.98 0 554.98 0"/>
        <polygon points="494.98 0 471.69 54.96 410.92 198.6 167.85 148.88 38.02 516.25 189.94 590.83 0 1080 0 942.66 10.73 914.29 29.55 864.54 48.37 814.8 67.19 765.05 86.01 715.31 104.83 665.56 123.65 615.82 0 548.44 0 469.64 135.36 90.47 380.69 140.65 446.83 0 494.98 0"/>
        <polygon class="cls-1" points="446.83 0 380.69 140.65 135.36 90.47 0 469.64 0 290.24 90.86 32.09 346.68 85.68 391.99 0 446.83 0"/>
        <polygon points="391.99 0 346.68 85.68 90.86 32.09 0 290.24 0 106.31 50.16 0 164.45 0 311.4 28.93 327.53 0 391.99 0"/>
        <polygon class="cls-1" points="327.53 0 311.4 28.93 164.45 0 327.53 0"/>
        <polygon class="cls-1" points="123.65 615.82 104.83 665.56 0 608.44 0 548.44 123.65 615.82"/>
        <polygon points="104.83 665.56 86.01 715.31 0 668.44 0 608.44 104.83 665.56"/>
        <polygon class="cls-1" points="86.01 715.31 67.19 765.05 0 728.44 0 668.44 86.01 715.31"/>
        <polygon points="67.19 765.05 48.37 814.8 0 788.44 0 728.44 67.19 765.05"/>
        <polygon class="cls-1" points="50.16 0 0 106.31 0 0 50.16 0"/>
        <polygon class="cls-1" points="48.37 814.8 29.55 864.54 0 848.44 0 788.44 48.37 814.8"/>
        <polygon points="29.55 864.54 10.73 914.29 0 908.44 0 848.44 29.55 864.54"/>
      </g>
    </g>
  </g>
</svg>
