<svg xmlns="http://www.w3.org/2000/svg" viewBox="0 0 957.24 235.93">
  <defs>
    <style>
      .cls-1 {
        fill: #12120d;
      }

      .cls-2 {
        fill: #fff;
      }

      .cls-3 {
        fill: none;
        stroke: #12120d;
        stroke-miterlimit: 10;
      }
    </style>
  </defs>
  <g id="Calque_2" data-name="Calque 2">
    <g id="Calque_1-2" data-name="Calque 1">
      <g>
        <g>
          <polygon class="cls-1" points="656.72 0 641.67 134.26 617.68 158.59 590.16 0 656.72 0"/>
          <polygon class="cls-2" points="724.93 0 685.65 89.66 685.65 89.67 641.67 134.26 656.72 0 724.93 0"/>
          <polygon class="cls-2" points="133.19 0 64.63 54.43 12.68 10.68 26.12 0 133.19 0"/>
          <polygon class="cls-1" points="773.14 0 774.78 0 774.23 0.55 773.14 0"/>
          <polygon class="cls-1" points="26.12 0 12.68 10.68 0 0 26.12 0"/>
          <polygon class="cls-1" points="597.12 179.44 577.53 199.31 414.45 0 513.61 0 597.12 179.44"/>
          <polygon class="cls-1" points="558.23 218.88 541.41 235.93 337.69 92.85 220.47 185.7 168.52 141.94 318.34 23 558.23 218.88"/>
          <polygon class="cls-1" points="240.25 0 116.57 98.19 64.63 54.43 133.19 0 240.25 0"/>
          <polygon class="cls-1" points="740.34 34.23 828.96 90.5 905.51 0 957.24 0 827.76 151.55 699.5 75.62 685.65 89.66 724.93 0 773.14 0 774.23 0.55 740.34 34.23"/>
          <polygon class="cls-1" points="837.64 32.56 774.23 0.55 774.78 0 863.88 0 837.64 32.56"/>
          <polygon class="cls-2" points="863.88 0 905.51 0 828.96 90.5 740.34 34.23 774.23 0.55 837.64 32.56 863.88 0"/>
          <polygon class="cls-2" points="414.45 0 577.53 199.31 558.23 218.88 318.34 23 168.52 141.94 116.57 98.19 240.25 0 414.45 0"/>
          <polygon class="cls-2" points="590.16 0 617.68 158.59 597.12 179.44 513.61 0 590.16 0"/>
        </g>
        <g>
          <line class="cls-3" x1="168.52" y1="141.94" x2="318.34" y2="23"/>
          <line class="cls-3" x1="318.34" y1="23" x2="558.23" y2="218.88"/>
        </g>
      </g>
    </g>
  </g>
</svg>
