<svg xmlns="http://www.w3.org/2000/svg" viewBox="0 0 400.67 1080">
  <defs>
    <style>
      .cls-1 {
        fill: #fff;
      }
    </style>
  </defs>
  <g id="Calque_2" data-name="Calque 2">
    <g id="Calque_1-2" data-name="Calque 1">
      <g>
        <polygon class="cls-1" points="400.67 794.37 400.67 907.41 366.35 873.93 305.4 814.48 0 516.55 101.16 516.55 400.67 794.37"/>
        <polygon points="400.67 695.32 400.67 794.37 101.16 516.55 209.62 516.55 400.67 695.32"/>
        <polygon class="cls-1" points="400.67 584.35 400.67 695.32 209.62 516.55 317.39 516.55 400.67 584.35"/>
        <polygon points="400.67 516.55 400.67 584.35 317.39 516.55 400.67 516.55"/>
        <polygon class="cls-1" points="400.67 438.8 400.67 516.55 317.39 516.55 400.67 438.8"/>
        <polygon points="400.67 327.81 400.67 438.8 317.39 516.55 209.62 516.55 400.67 327.81"/>
        <polygon class="cls-1" points="400.67 230.37 400.67 327.81 209.62 516.55 101.16 516.55 400.67 230.37"/>
        <polygon points="400.67 125.68 400.67 230.37 101.16 516.55 0 516.55 197.73 323.66 257.32 265.52 315.92 208.36 374.51 151.2 400.67 125.68"/>
        <polygon points="400.67 963.54 400.67 1080 281.82 1080 400.67 963.54"/>
        <polygon class="cls-1" points="400.67 907.41 400.67 963.54 281.82 1080 156.05 1080 366.05 874.23 366.35 873.93 400.67 907.41"/>
        <polygon class="cls-1" points="400.67 0 400.67 125.68 374.51 151.2 317.89 0 400.67 0"/>
        <polygon points="317.89 0 374.51 151.2 315.92 208.36 237.89 0 317.89 0"/>
        <polygon points="366.35 873.93 366.05 874.23 156.05 1080 28.56 1080 305.4 814.48 366.35 873.93"/>
        <polygon class="cls-1" points="237.89 0 315.92 208.36 257.32 265.52 157.89 0 237.89 0"/>
        <polygon points="157.89 0 257.32 265.52 197.73 323.66 71.71 0 157.89 0"/>
      </g>
    </g>
  </g>
</svg>
