<svg xmlns="http://www.w3.org/2000/svg" viewBox="0 0 532.78 540">
  <defs>
    <style>
      .cls-1 {
        fill: #fff;
      }
    </style>
  </defs>
  <g id="Calque_2" data-name="Calque 2">
    <g id="Calque_1-2" data-name="Calque 1">
      <g>
        <polygon points="532.78 0 509.69 205.39 301.19 205.39 213.69 540 0 540 0 465.26 141.05 465.26 233.1 128.43 435.78 128.43 452.21 0 532.78 0"/>
        <polygon class="cls-1" points="452.21 0 435.78 128.43 233.1 128.43 141.05 465.26 0 465.26 0 388.61 70.93 388.61 174.79 0 258.23 0 244.45 63.05 375.67 62.62 385.63 0 452.21 0"/>
        <polygon points="385.63 0 375.67 62.62 244.45 63.05 258.23 0 385.63 0"/>
        <polygon points="174.79 0 70.93 388.61 0 388.61 0 315.15 8.84 315.15 92.69 0 174.79 0"/>
        <polygon class="cls-1" points="92.69 0 8.84 315.15 0 315.15 0 66.84 19.46 0 92.69 0"/>
        <polygon points="19.46 0 0 66.84 0 0 19.46 0"/>
      </g>
    </g>
  </g>
</svg>
