<svg xmlns="http://www.w3.org/2000/svg" viewBox="0 0 1920 2160">
  <defs>
    <style>
      .cls-1 {
        fill: #fff;
      }
    </style>
  </defs>
  <g id="Calque_2" data-name="Calque 2">
    <g id="Calque_1-2" data-name="Calque 1">
      <g>
        <polygon points="1920 2124.65 1920 2160 1859.53 2160 1250.3 2012.4 1262.5 1965.36 1920 2124.65"/>
        <polygon class="cls-1" points="1920 2074.65 1920 2124.65 1262.5 1965.36 1274.7 1918.32 1920 2074.65"/>
        <polygon points="1920 2024.65 1920 2074.65 1274.7 1918.32 1286.9 1871.27 1286.91 1871.27 1920 2024.65"/>
        <polygon class="cls-1" points="1920 1975.31 1920 2024.65 1286.91 1871.27 1298.74 1825.64 1435.05 1858.48 1578.37 1893.01 1671.98 1915.56 1771.98 1939.65 1871.98 1963.74 1920 1975.31"/>
        <polygon points="1920 1698.86 1920 1975.31 1871.98 1963.74 1871.98 1714.61 1920 1698.86"/>
        <polygon class="cls-1" points="1920 1618.17 1920 1698.86 1871.98 1714.61 1771.98 1747.4 1671.98 1780.2 1578.37 1810.9 1485.29 1841.43 888.98 1514.01 825.68 1479.26 770.01 1448.69 722.7 1422.71 676.09 1397.12 624.62 1368.86 376.1 1689.16 0 1464.36 0 1376.67 58.43 1413.33 118.43 1450.98 178.43 1488.63 238.43 1526.27 238.43 1526.28 298.43 1563.92 341.25 1590.79 358.43 1573.07 418.43 1511.17 626.47 1296.56 1512.16 1793.45 1920 1618.17"/>
        <polygon points="1920 1504.76 1920 1618.17 1512.16 1793.45 626.47 1296.56 418.43 1511.17 418.43 1362.5 624.62 1255.31 1539.81 1741.34 1894.59 1489.12 1920 1504.76"/>
        <polygon class="cls-1" points="1894.59 1489.12 1756.87 1404.34 1472.1 1229.02 1430.37 1080 1409.41 1005.16 1388.8 931.52 1369.55 862.8 1355.83 813.78 1341.57 762.87 1302.47 623.22 1344.61 608.35 1578.37 1080 1646.48 1214.32 1920 1388.49 1920 1504.76 1894.59 1489.12"/>
        <polygon points="1920 1186.51 1920 1388.49 1646.48 1214.32 1578.37 1080 1344.61 608.35 1387.15 593.33 1794.79 1080 1880.39 1172.73 1920 1186.51"/>
        <polygon class="cls-1" points="1920 848.95 1920 1186.51 1880.39 1172.73 1794.79 1080 1387.15 593.33 1439.48 574.87 1920 848.95"/>
        <polygon points="1920 676.8 1920 848.95 1439.48 574.87 1512.02 549.27 1920 676.8"/>
        <polygon class="cls-1" points="1920 566.08 1920 676.8 1512.02 549.27 1570.26 528.72 1570.28 528.72 1920 566.08"/>
        <polygon points="1920 405.3 1920 566.08 1570.28 528.72 1920 405.3"/>
        <polygon class="cls-1" points="1302.47 623.22 1206.86 656.96 1087.63 699.03 912.58 487.02 0 914.77 0 857.66 978.49 394.19 1188.15 570.96 1920 345.86 1920 405.3 1570.28 528.72 1570.26 528.72 1512.02 549.27 1439.48 574.87 1387.15 593.33 1344.61 608.35 1302.47 623.22"/>
        <polygon points="1920 151.04 1920 345.86 1188.15 570.96 978.49 394.19 0 857.66 0 820.52 1018.35 338.39 1241.21 474.55 1920 151.04"/>
        <polygon class="cls-1" points="1920 0 1920 151.04 1241.21 474.55 1018.35 338.39 0 820.52 0 778.85 879.46 367.51 960 329.84 1030.69 296.78 1030.69 296.77 1087.59 270.16 1329 348.52 1854.81 0 1920 0"/>
        <polygon class="cls-1" points="1894.59 1489.12 1539.81 1741.34 624.62 1255.31 418.43 1362.5 418.43 1199.55 649.51 1215.86 793.54 1290.97 928.91 1361.56 988.5 1392.64 1272.13 1540.56 1320.61 1565.84 1366.3 1589.66 1414.31 1614.7 1462.33 1639.75 1510.35 1664.79 1528.07 1674.03 1579.67 1613.21 1756.87 1404.34 1894.59 1489.12"/>
        <polygon class="cls-1" points="1871.98 1714.61 1871.98 1963.74 1771.98 1939.65 1771.98 1747.4 1871.98 1714.61"/>
        <polygon class="cls-1" points="1859.53 2160 1653.13 2160 1238.1 2059.45 1250.3 2012.4 1859.53 2160"/>
        <polygon points="1854.81 0 1329 348.52 1087.59 270.16 1087.61 196.87 1284.45 255.62 1580.93 0 1854.81 0"/>
        <polygon points="1771.98 1747.4 1771.98 1939.65 1671.98 1915.56 1671.98 1780.2 1771.98 1747.4"/>
        <polygon points="1756.87 1404.34 1579.67 1613.21 1562.13 1550.58 1539.47 1469.63 1539.47 1469.62 1516.8 1388.67 1494.13 1307.71 1472.1 1229.02 1756.87 1404.34"/>
        <polygon class="cls-1" points="1671.98 1780.2 1671.98 1915.56 1578.37 1893.01 1578.37 1810.9 1671.98 1780.2"/>
        <polygon points="1653.13 2160 1446.74 2160 1225.9 2106.49 1238.1 2059.45 1653.13 2160"/>
        <polygon class="cls-1" points="1580.93 0 1284.45 255.62 1087.61 196.87 1087.62 139.48 1267.74 203.27 1467.74 0 1580.93 0"/>
        <polygon points="1562.13 1550.58 1579.67 1613.21 1528.07 1674.03 1510.35 1664.79 1562.13 1550.58"/>
        <polygon points="1578.37 1810.9 1578.37 1893.01 1435.05 1858.48 1485.29 1841.43 1578.37 1810.9"/>
        <polygon class="cls-1" points="1539.47 1469.63 1562.13 1550.58 1510.35 1664.79 1462.33 1639.75 1539.47 1469.63"/>
        <polygon points="1539.47 1469.62 1539.47 1469.63 1462.33 1639.75 1414.31 1614.7 1516.8 1388.67 1539.47 1469.62"/>
        <polygon class="cls-1" points="1494.13 1307.71 1516.8 1388.67 1414.31 1614.7 1366.3 1589.66 1494.13 1307.71"/>
        <polygon points="1472.1 1229.02 1494.13 1307.71 1366.3 1589.66 1320.61 1565.84 1472.1 1229.02"/>
        <path d="M1485.29,1841.43l-50.24,17-136.31-32.84L742,1691l147-177ZM842.06,1664.79l384.7,94L904.65,1582.05Z"/>
        <polygon class="cls-1" points="1430.37 1080 1472.1 1229.02 1320.61 1565.84 1272.13 1540.56 1298.74 1436.79 1330.17 1314.2 1361.65 1191.42 1390.22 1080 1409.41 1005.16 1430.37 1080"/>
        <polygon points="1467.74 0 1267.74 203.27 1087.62 139.48 1087.64 92.73 1246.52 134 1351.87 0 1467.74 0"/>
        <polygon class="cls-1" points="1446.74 2160 1212.02 2160 1225.9 2106.49 1446.74 2160"/>
        <polygon points="1388.8 931.52 1409.41 1005.16 1390.22 1080 1293.09 1041.77 1388.8 931.52"/>
        <polygon class="cls-1" points="1390.22 1080 1361.65 1191.42 1214.59 1132.2 1259.9 1080 1293.08 1041.77 1293.09 1041.77 1390.22 1080"/>
        <polygon class="cls-1" points="1044.56 1102.01 1074.47 1080 1369.55 862.8 1388.8 931.52 1293.09 1041.77 1293.08 1041.77 1259.9 1080 1214.59 1132.2 1133.35 1225.78 1056.6 1314.2 988.5 1392.64 928.91 1361.56 819.94 1080 722.42 828.02 817.48 794.44 927.96 1080 960.43 1163.94 1044.56 1102.01"/>
        <polygon points="1355.83 813.78 1369.55 862.8 1074.47 1080 1044.56 1102.01 960.43 1163.94 927.96 1080 817.48 794.44 912.54 760.87 940.75 833.77 960 883.51 999.36 985.21 1355.83 813.78"/>
        <polygon points="1361.65 1191.42 1330.17 1314.2 1133.35 1225.78 1214.59 1132.2 1361.65 1191.42"/>
        <polygon class="cls-1" points="1341.57 762.87 1355.83 813.78 999.36 985.21 960 883.51 1341.57 762.87"/>
        <polygon class="cls-1" points="1351.87 0 1246.52 134 1087.64 92.73 1087.65 50.01 1188.38 78.83 1207.66 0 1351.87 0"/>
        <polygon points="1302.47 623.22 1341.57 762.87 960 883.51 940.75 833.77 1236.42 738.46 1206.86 656.96 1302.47 623.22"/>
        <polygon class="cls-1" points="1330.17 1314.2 1298.74 1436.79 1056.6 1314.2 1133.35 1225.78 1330.17 1314.2"/>
        <polygon points="1298.74 1436.79 1272.13 1540.56 988.5 1392.64 1056.6 1314.2 1298.74 1436.79"/>
        <polygon class="cls-1" points="1298.74 1825.64 1286.91 1871.27 1286.9 1871.27 1274.7 1918.32 1262.5 1965.36 1250.3 2012.4 1238.1 2059.45 1225.9 2106.49 1212.02 2160 1156.29 2160 1226.76 1892.16 722.7 1793.45 770.01 2160 691.83 2160 637.07 1817.39 742 1691.02 1298.74 1825.64"/>
        <polygon class="cls-1" points="1206.86 656.96 1236.42 738.46 940.75 833.77 912.54 760.87 1087.63 699.03 1206.86 656.96"/>
        <polygon points="1226.76 1892.16 1156.29 2160 1094.51 2160 1156.85 1937.81 785.29 1871.27 822.51 2160 770.01 2160 722.7 1793.45 1226.76 1892.16"/>
        <path class="cls-1" d="M1226.76,1758.84l-384.7-94,62.59-82.74ZM889,1653.32l145.43,30-119-68.62Z"/>
        <polygon points="1207.66 0 1188.38 78.83 1087.65 50.01 1087.66 0 1207.66 0"/>
        <polygon class="cls-1" points="1156.85 1937.81 1094.51 2160 1033.11 2160 1071.77 1989.03 856.91 1960.8 878.11 2160 822.51 2160 785.29 1871.27 1156.85 1937.81"/>
        <polygon class="cls-1" points="1087.65 50.01 1087.64 92.73 1087.62 139.48 1087.61 196.87 1087.59 270.16 1030.69 296.77 1029.84 0 1087.66 0 1087.65 50.01"/>
        <polygon points="532.31 895.16 8.99 1080 0 1080 0 1016.2 935.43 677.23 879.46 588.96 0 964.85 0 914.77 912.58 487.02 1087.63 699.03 912.54 760.87 817.48 794.44 722.42 828.02 627.36 861.59 532.31 895.16"/>
        <polygon points="1071.77 1989.03 1033.11 2160 980.04 2160 994.08 2037.84 915.39 2027.94 915.39 2160 878.11 2160 856.91 1960.8 1071.77 1989.03"/>
        <polygon points="1034.41 1683.32 888.98 1653.32 915.39 1614.7 1034.41 1683.32"/>
        <polygon points="1029.84 0 1030.69 296.77 1030.69 296.78 960 329.84 991.07 0 1029.84 0"/>
        <polygon class="cls-1" points="994.08 2037.84 980.04 2160 915.39 2160 915.39 2027.94 994.08 2037.84"/>
        <polygon class="cls-1" points="991.07 0 960 329.84 879.46 367.51 942.63 0 991.07 0"/>
        <polygon points="942.63 0 879.46 367.51 0 778.85 0 702.11 813.72 335.1 873.4 0 942.63 0"/>
        <polygon class="cls-1" points="879.46 588.96 935.43 677.23 0 1016.2 0 964.85 879.46 588.96"/>
        <polygon points="819.94 1080 928.91 1361.56 793.54 1290.97 711.89 1080 627.36 861.59 722.42 828.02 819.94 1080"/>
        <polygon points="888.98 1514.01 742 1691.02 637.07 1817.39 526.72 1950.28 381.47 2003.14 193.57 2071.53 0 2141.98 0 1990.37 487.26 1908.1 825.68 1479.26 888.98 1514.01"/>
        <polygon class="cls-1" points="873.4 0 813.72 335.1 0 702.11 0 619.33 774.27 288.14 809.56 0 873.4 0"/>
        <polygon class="cls-1" points="770.01 1448.69 825.68 1479.26 487.26 1908.1 0 1990.37 0 1906.07 453.52 1858.25 770.01 1448.69"/>
        <polygon points="156.96 475.21 216.7 449.05 276.44 422.89 336.18 396.73 721.46 238 739.43 0 809.56 0 774.27 288.14 0 619.33 0 543.94 37.47 527.54 97.21 501.38 156.96 475.21"/>
        <polygon class="cls-1" points="711.89 1080 793.54 1290.97 649.51 1215.86 624.62 1139.78 603.84 1080 532.31 895.16 627.36 861.59 711.89 1080"/>
        <polygon points="770.01 1448.69 453.52 1858.25 0 1906.07 0 1794.23 434.88 1825.64 722.7 1422.71 770.01 1448.69"/>
        <polygon class="cls-1" points="739.43 0 721.46 238 336.18 396.73 149.96 0 236.4 0 366 306 662 194 662 0 739.43 0"/>
        <polygon class="cls-1" points="722.7 1422.71 434.88 1825.64 0 1794.23 0 1643.14 397.25 1766.98 676.09 1397.12 722.7 1422.71"/>
        <polygon points="637.07 1817.39 691.83 2160 630.78 2160 526.72 1950.28 637.07 1817.39"/>
        <polygon points="676.09 1397.12 397.25 1766.98 0 1643.14 0 1464.36 376.1 1689.16 624.62 1368.86 676.09 1397.12"/>
        <polygon points="662 0 662 194 366 306 236.4 0 324.47 0 410 238 594 166 594 0 662 0"/>
        <polygon points="624.62 1139.78 649.51 1215.86 418.43 1199.55 418.43 1139.78 624.62 1139.78"/>
        <polygon class="cls-1" points="526.72 1950.28 630.78 2160 571.4 2160 381.47 2003.14 526.72 1950.28"/>
        <polygon class="cls-1" points="603.84 1080 624.62 1139.78 418.43 1139.78 358.43 1139.78 298.43 1139.78 238.43 1139.78 178.43 1139.78 118.43 1139.78 58.43 1139.78 0 1139.78 0 1083.17 8.99 1080 603.84 1080"/>
        <polygon points="532.31 895.16 603.84 1080 8.99 1080 532.31 895.16"/>
        <polygon class="cls-1" points="594 0 594 166 410 238 324.47 0 416.12 0 456 134 526 102 511 0 594 0"/>
        <polygon points="381.47 2003.14 571.4 2160 484.99 2160 193.57 2071.53 381.47 2003.14"/>
        <polygon points="511 0 526 102 456 134 416.12 0 511 0"/>
        <polygon class="cls-1" points="484.99 2160 0 2160 0 2141.98 193.57 2071.53 484.99 2160"/>
        <polygon points="418.43 1362.5 418.43 1511.17 358.43 1573.07 358.43 1139.78 418.43 1139.78 418.43 1199.55 418.43 1362.5"/>
        <polygon class="cls-1" points="358.43 1139.78 358.43 1573.07 341.25 1590.79 298.43 1563.92 298.43 1139.78 358.43 1139.78"/>
        <polygon points="149.96 0 336.18 396.73 276.44 422.89 77.46 0 149.96 0"/>
        <polygon points="298.43 1139.78 298.43 1563.92 238.43 1526.28 238.43 1526.27 238.43 1139.78 298.43 1139.78"/>
        <polygon class="cls-1" points="77.46 0 276.44 422.89 216.7 449.05 5.42 0 77.46 0"/>
        <polygon class="cls-1" points="238.43 1139.78 238.43 1526.27 178.43 1488.63 178.43 1139.78 238.43 1139.78"/>
        <polygon points="5.42 0 216.7 449.05 156.96 475.21 0 141.61 0 0 5.42 0"/>
        <polygon points="178.43 1139.78 178.43 1488.63 118.43 1450.98 118.43 1139.78 178.43 1139.78"/>
        <polygon class="cls-1" points="156.96 475.21 97.21 501.38 0 294.77 0 141.61 156.96 475.21"/>
        <polygon class="cls-1" points="118.43 1139.78 118.43 1450.98 58.43 1413.33 58.43 1139.78 118.43 1139.78"/>
        <polygon points="0 294.77 97.21 501.38 37.47 527.54 0 447.91 0 294.77"/>
        <polygon points="58.43 1139.78 58.43 1413.33 0 1376.67 0 1139.78 58.43 1139.78"/>
        <polygon class="cls-1" points="0 447.91 37.47 527.54 0 543.94 0 447.91"/>
      </g>
    </g>
  </g>
</svg>
