<svg xmlns="http://www.w3.org/2000/svg" viewBox="0 0 546.67 595.79">
  <defs>
    <style>
      .cls-1 {
        fill: #fff;
      }

      .cls-2 {
        fill: #12120d;
      }
    </style>
  </defs>
  <g id="Calque_2" data-name="Calque 2">
    <g id="Calque_1-2" data-name="Calque 1">
      <g>
        <polygon class="cls-1" points="546.67 451.56 546.67 595.79 520.17 595.79 289.92 162.62 367.09 113.74 546.67 451.56"/>
        <polygon class="cls-2" points="546.67 257.5 546.67 451.56 367.09 113.74 444.27 64.86 546.67 257.5"/>
        <polygon class="cls-1" points="546.67 63.44 546.67 257.5 444.27 64.86 521.44 15.98 546.67 63.44"/>
        <polygon class="cls-2" points="546.67 0 546.67 63.44 521.44 15.98 546.67 0"/>
        <polygon class="cls-2" points="289.92 162.62 520.17 595.79 417.03 595.79 390.15 545.24 348.27 466.44 306.38 387.64 264.49 308.83 212.75 211.5 289.92 162.62"/>
        <polygon class="cls-1" points="417.03 595.79 343.56 595.79 390.15 545.24 417.03 595.79"/>
        <polygon class="cls-2" points="348.27 466.44 390.15 545.24 343.56 595.79 229.04 595.79 348.26 466.44 348.27 466.44"/>
        <polygon class="cls-1" points="306.38 387.64 348.27 466.44 348.26 466.44 229.04 595.79 114.52 595.79 306.38 387.64"/>
        <polygon class="cls-2" points="264.49 308.83 306.38 387.64 114.52 595.79 0 595.79 264.49 308.83"/>
      </g>
    </g>
  </g>
</svg>
