<svg xmlns="http://www.w3.org/2000/svg" viewBox="0 0 387.61 760.13">
  <defs>
    <style>
      .cls-1 {
        fill: #12120d;
      }

      .cls-2 {
        fill: #fff;
      }

      .cls-3 {
        fill: none;
        stroke: #12120d;
        stroke-miterlimit: 10;
      }
    </style>
  </defs>
  <g id="Calque_2" data-name="Calque 2">
    <g id="Calque_1-2" data-name="Calque 1">
      <g>
        <g>
          <polygon class="cls-1" points="359.23 726.13 387.61 760.13 341.81 760.13 359.23 726.13"/>
          <polygon class="cls-2" points="321.74 681.22 359.23 726.13 341.81 760.13 281.32 760.13 321.74 681.22"/>
          <polygon class="cls-1" points="341.78 330.5 331.89 425.22 160.35 760.13 99.87 760.13 326.29 318.06 327.57 316.74 341.78 330.5"/>
          <polygon class="cls-2" points="331.89 425.22 316.41 573.55 220.84 760.13 160.35 760.13 331.89 425.22"/>
          <polygon class="cls-2" points="327.57 316.74 326.29 318.06 99.87 760.13 39.38 760.13 286.29 278.06 286.93 277.4 327.57 316.74"/>
          <polygon class="cls-1" points="307.01 663.57 321.74 681.22 281.32 760.13 220.84 760.13 316.41 573.55 307.01 663.57"/>
          <polygon class="cls-1" points="286.93 277.4 286.29 278.06 39.38 760.13 0.35 760.13 0.35 718.23 6.59 706.04 30.56 659.24 54.53 612.44 78.5 565.64 102.47 518.84 126.44 472.04 150.41 425.24 174.39 378.44 198.36 331.64 222.33 284.84 246.29 238.06 286.93 277.4"/>
          <polygon class="cls-1" points="246.29 238.06 222.33 284.84 0.35 70 0.35 0 246.29 238.06"/>
          <polygon class="cls-2" points="222.33 284.84 198.36 331.64 198.35 331.64 0.35 140 0.35 70 222.33 284.84"/>
          <polygon class="cls-1" points="198.36 331.64 174.39 378.44 174.38 378.44 0.35 210 0.35 140 198.35 331.64 198.36 331.64"/>
          <polygon class="cls-2" points="174.39 378.44 150.41 425.24 0.35 280 0.35 210 174.38 378.44 174.39 378.44"/>
          <polygon class="cls-1" points="150.41 425.24 126.44 472.04 0.35 350 0.35 280 150.41 425.24"/>
          <polygon class="cls-2" points="126.44 472.04 102.47 518.84 0.35 420 0.35 350 126.44 472.04"/>
          <polygon class="cls-1" points="102.47 518.84 78.5 565.64 0.35 490 0.35 420 102.47 518.84"/>
          <polygon class="cls-2" points="78.5 565.64 54.53 612.44 0.35 560 0.35 490 78.5 565.64"/>
          <polygon class="cls-1" points="54.53 612.44 30.56 659.24 0.35 630 0.35 560 54.53 612.44"/>
          <polygon class="cls-2" points="30.56 659.24 6.59 706.04 0.35 700 0.35 630 30.56 659.24"/>
          <polygon class="cls-1" points="6.59 706.04 0.35 718.23 0.35 700 6.59 706.04"/>
        </g>
        <line class="cls-3" x1="126.44" y1="472.04" x2="0.35" y2="350"/>
      </g>
    </g>
  </g>
</svg>
