<svg xmlns="http://www.w3.org/2000/svg" viewBox="0 0 459.76 196.4">
  <g id="Calque_2" data-name="Calque 2">
    <g id="Calque_1-2" data-name="Calque 1">
      <g>
        <path d="M9.36,99.84V20.16H41.64C57,20.16,68.16,34,68.16,49.8c0,10.8-5.52,20.76-13.68,25.68L68.64,99.84h-16L40.92,79.32H23V99.84Zm30.48-34.2c10.08,0,14.64-8,14.64-15.84,0-7.44-3.84-16-14.64-16H23v31.8Z" transform="translate(-9.36 -13.44)"/>
        <path d="M89.16,99.84V93L94,87.72l37.2-41.28h-42V36.72h57.72v6.84l-4.8,5.28-37.2,41.28h42v9.72Zm50.52-17.52h-.24c-4.56,0-7-2-7-5.64s2.4-5.64,7-5.64h.24a8.44,8.44,0,0,1,4.68,1.08,3.32,3.32,0,0,0-3.6-3.24h-6.12v-2.4h6.12c3.6,0,6.12,2.4,6.12,7v8.88h-2.4v-1.2A9.13,9.13,0,0,1,139.68,82.32Zm0-2.52c3.12,0,4.56-.72,4.56-3.12,0-2.76-1.92-3.24-4.56-3.24h-.24c-2.76,0-4.56.48-4.56,3.24,0,2.4,1.44,3.12,4.56,3.12Z" transform="translate(-9.36 -13.44)"/>
        <path d="M194.28,78.6l.24-.36h-.24v.36L183.84,90.12h42v9.72H168.12V93l4.8-5.28,18.36-20.28h-7.8V62h10.8v2l15.84-17.64H199.68v10.2h-5.4V46.44h-5.4v4.8h-5.4v-4.8h-10.8v4.8h-10.8v-5.4h6.24V36.72h57.72v6.84L221,48.84,214,56.64h1.92V62h-5.4V60.6l-6.24,6.84h.84v5.4h-5.4V72.6l-5.16,5.64h10.56v5.4h-5.4V89h-5.4Zm-32.4-11.16V62h5.4v-5.4h5.4v16.2h-5.4v-5.4Zm5.4,16.2v-5.4h5.4v5.4Zm5.4-32.4h5.4v5.4h-5.4Zm0,27v-5.4h5.4v5.4Zm5.4-16.2v-5.4h5.4V62Zm37.8,5.4v10.8h-5.4V67.44ZM210.48,89v-5.4h5.4V89Zm10.8-32.4h5.4V62h-5.4Zm10.8,21.6h-10.8v-5.4h10.8ZM221.28,89v-5.4h5.4V89Zm10.8-48.6v10.8h-5.4V40.44Zm-5.4,27V62h5.4v5.4Z" transform="translate(-9.36 -13.44)"/>
        <path d="M247.08,93l2.76-3.12-13,10v-3.6l23.64-18,10.56-11.76-34.2-26.16v-3.6l10.2,7.8v-7.8H304.8v6.84l-2.53,2.76,12.6-9.6v3.6L291.72,58,280.8,70.2l34.07,26v3.6L304.8,92.16v7.68H247.08Zm2.52-46.56L273,64.32l16.08-17.88Zm52.55,43.68L278.88,72.36,262.8,90.12Z" transform="translate(-9.36 -13.44)"/>
        <path d="M325.92,90.12h24v-67h-24V13.44h33.72V90.12h24v9.72H325.92Z" transform="translate(-9.36 -13.44)"/>
        <path d="M435.47,99.84a42,42,0,0,1-14.16-2.52l-.72.12a5.2,5.2,0,0,1-2.39.48c-6.84,0-9.72-4.92-11-7.08a7.66,7.66,0,0,1-3.72-2.52,5.05,5.05,0,0,1,2.4-6.24l.48-.12A29.74,29.74,0,0,1,405,73.2V64.08a28.44,28.44,0,0,1,4-14.28,6.54,6.54,0,0,1-5.64-4.32c-1.56-2.52-1.08-5.52,1.32-7,2.15-1,4.68-1,6.11,1,2.77-1.56,7.45-4.44,13.08-1.2a32.15,32.15,0,0,1,10.08-1.56,29.85,29.85,0,0,1,19.2,6.6A23,23,0,0,1,462,40.68c2.52,0,4.92,1.68,4.92,3.84a4.05,4.05,0,0,1-4.08,4.92,19.89,19.89,0,0,0-3.72.72,27.16,27.16,0,0,1,3.72,13.56,13.86,13.86,0,0,1,2.52,4l.24.36c1.44,0,2.64,1.08,3.24,3.6a4.81,4.81,0,0,1-2.4,6,3.55,3.55,0,0,1-4.56-.48l-1-.12v1.08a9.89,9.89,0,0,1-4.08,7.56,6.77,6.77,0,0,1-4.08,1.44,5.07,5.07,0,0,1-2.4-1,8.29,8.29,0,0,1-3-4.56h-.24c-1.56,1.08-3.72.48-4.92-1.92a6.67,6.67,0,0,1-.48-2.52H415.08A13.67,13.67,0,0,0,420,85.68c1-3.36,4.31-6.12,12.59-7.08,2.64,0,4.92,1.68,4.92,3.84a4,4,0,0,1-4.08,4.92,12.24,12.24,0,0,0-4.68,1.2v1a38.9,38.9,0,0,0,7.44.6h26.64v9.72H435.47Zm-9.36-34.32c-.84-.24-1.56-.72-2.28-1-5.4-4.56-6.36-8.28-5.52-11.28a17.69,17.69,0,0,0-3.6,11.28v2.88h38l.36-.72V64a21.07,21.07,0,0,0-.84-4.92,10.83,10.83,0,0,1-2.28.48,5.22,5.22,0,0,1-2.4.48h-.84c-6.36-.48-8.88-5-10.2-7.08a6.93,6.93,0,0,1-3.72-2.52,5,5,0,0,1,.24-4c-.72,0-1.32.12-2,.12,1.2,4.08-1.2,7.08-2.28,8.4,0,.6.6,1.08,1.56,1.56,2,2,2.64,4.92.6,7.08a5.88,5.88,0,0,1-4.2,2Z" transform="translate(-9.36 -13.44)"/>
        <path d="M10.44,130.16H41.52a2.34,2.34,0,0,1,.84.12c7.92.6,14.76,5.16,19.44,13.2,4.08,7.08,6.36,16.44,6.36,26.52s-2.28,19.44-6.36,26.4c-4.68,8-11.52,12.72-19.44,13.32a2,2,0,0,1-.84.12H10.44Zm43,61.44c3.24-5.52,5-13.44,5-21.6,0-15-6.12-30.12-18-30.12H20v60.24h20.4C45.72,200.12,50.16,197.24,53.4,191.6ZM25.8,199v-5.4h5.4V199Zm5.4-48.6h5.4v5.4H31.2Zm0,27V172h5.4v5.4ZM36.6,199v-5.4H42V199Zm5.4-48.6V145h5.4v5.4Zm5.4,16.2v-5.4h5.4v5.4Zm0,10.8V172h5.4v5.4Zm16.2-48.6H69v5.4H63.6Zm0,16.2v-5.4H69V145Zm5.4,64.8v-5.4h5.4v5.4Z" transform="translate(-9.36 -13.44)"/>
        <path d="M118,209.84h-1.08c-9,0-16.08-2-20.88-6a18.11,18.11,0,0,1-5.64-7.44,24.45,24.45,0,0,1-1.8-9.6c0-15,10.2-23.16,28.32-23.16,11,0,16.68,4.68,16.92,7.68-.24-7.08-6.84-10.92-11.88-10.92H96.72V146.72h25.2c7.56,0,13.92,2.52,18.36,7.32a25,25,0,0,1,5.28,8.64,40.89,40.89,0,0,1,1.8,12.12v35H133.68v-4.08C129.36,207.68,124.2,209.84,118,209.84Zm11.52-16c1.44-.84,3.24-2.28,3.24-7.08,0-5.28-1.92-6.72-3.72-7.68-2.76-1.68-7.32-1.8-11-1.8h-1.08c-3.72,0-8.28.12-11.16,1.8-1.56,1-3.48,2.4-3.48,7.68,0,4.8,1.68,6.24,3,7.08,2.28,1.56,6,2.28,11.64,2.28H118C123.6,196.16,127.2,195.44,129.48,193.88Z" transform="translate(-9.36 -13.44)"/>
        <path d="M197,209.84h-1.2c-18.24,0-27.72-8-27.72-22.32,0-14.52,9.48-22.56,27.72-22.56H197c7.92,0,14.16,1.56,18.72,4.44-1.08-7.92-5.28-13-14.52-13H176.76v-9.72h24.48c14.52,0,24.6,9.48,24.6,27.72v35.4h-9.72v-4.56C211.56,208.28,205.2,209.84,197,209.84Zm0-9.72c12.36,0,18-3.12,18-12.6,0-11-7.32-12.84-18-12.84h-1.2c-10.68,0-18,1.8-18,12.84,0,9.48,5.64,12.6,18,12.6Zm-7.32-4.32v-1.68l1.2-1.32,9.36-10.32H189.72V180h14.52v1.8l-1.2,1.32-9.36,10.32h10.56v2.4Z" transform="translate(-9.36 -13.44)"/>
        <path d="M247.08,203l4.8-5.28,37.2-41.28h-42v-9.72H304.8v6.84l-4.8,5.28-37.2,41.28h42v9.72H247.08Z" transform="translate(-9.36 -13.44)"/>
        <path d="M325.56,200.12l8.52.12a5.89,5.89,0,0,1,1.8-5.16c2.64-2,4.8-2,6.6-.6a6.28,6.28,0,0,1,1.92,2v-3a8,8,0,0,1,3.24-7,9.17,9.17,0,0,1,1.92-1.32V174.92c-1.32-.84-2.4-1.68-3.36-2.28l-.6.36c-2.28,1.08-4.8.72-9.72-.6l-5.28-1.08c-1.8.24-3.84,0-4.8-1.56a3.21,3.21,0,0,1,1-5,20.07,20.07,0,0,1,3.48-.84h2a13.84,13.84,0,0,0,3.24.84c2-1.92,4.44-2.16,5.76-2.52a15.19,15.19,0,0,1,8.28,2.76v-9.84a7.11,7.11,0,0,1,0-2.76v-1a5.16,5.16,0,0,1-1.2,2.76,6.34,6.34,0,0,1-4.2,2c-1.08,0-1.92-.84-2.88-1.08-8.52-7.08-5.88-12-3.24-15.6l-.48-1a2.69,2.69,0,0,0-2.16-1,12.12,12.12,0,0,0-1.92,1c-1.68,1-3,1.92-5.76,1.92a6.79,6.79,0,0,1-7-4.44,4.83,4.83,0,0,1,1.2-7,7.61,7.61,0,0,1,3.6-.6v-5h33.72v23.28l1,.12,2,1.56c1,2.28,0,4-2.52,5h-.48v.84c.36,1.56,2.28,4.68,3.48,6.36a19.34,19.34,0,0,1,4,6.84c1.8,4.92-1.68,6.6-3.48,8.28a8.65,8.65,0,0,1-4,1.92V191a4.62,4.62,0,0,1,1.8,3.12,5,5,0,0,1-1.8,5.52v.48H383.4v9.72H325.56ZM346.2,146a3.45,3.45,0,0,0,1.56,1.08,6.05,6.05,0,0,1,1.8,3.72V133.16H346.2c5,6.24,1.44,10.56-.12,12.36Zm27.6,6.6a5.06,5.06,0,0,1-.73-5.16c-1.8.24-3.95.72-5.76-.84-2.51-1.8-2.51-5.4-2.51-8.64v-2.64a3.41,3.41,0,0,1,0-4,3.9,3.9,0,0,1,5-1.08c2.64,1.8,2.15,4.68,2.15,7.68v1.8a.91.91,0,0,0,.73-.36c2.27-1.2,5.51-2.52,8-.36,3,2.52,1.2,6.12,0,8.64-.35.84-.72,1.2-.72,1.92a4.72,4.72,0,0,1-1,3,4.44,4.44,0,0,1-2.63,1.08A3.71,3.71,0,0,1,373.8,152.6Z" transform="translate(-9.36 -13.44)"/>
        <path d="M413,202.64c-5.4-4.68-8.16-11.52-8.16-19.44v-9.12c.24-17.88,14.51-27.36,28.79-27.36,14.52,0,28.92,9.6,28.92,27.84v12.6H415c2,10.68,12.11,13,21,13h26.64v9.72H436C426.23,209.84,418.55,207.32,413,202.64ZM452.87,174c-.36-10.44-8.4-17.52-19.2-17.52-9.48,0-19.08,5.64-19.08,18.12v2.88h38.28V174Z" transform="translate(-9.36 -13.44)"/>
      </g>
    </g>
  </g>
</svg>
